{
    "asset" : {
        "generator" : "Khronos glTF Blender I/O v3.4.50",
        "version" : "2.0"
    },
    "scene" : 0,
    "scenes" : [
        {
            "name" : "Scene",
            "nodes" : [
                0
            ]
        }
    ],
    "nodes" : [
        {
            "mesh" : 0,
            "name" : "Diorama_Stonehenge"
        }
    ],
    "materials" : [
        {
            "alphaMode" : "BLEND",
            "doubleSided" : true,
            "name" : "aiStandardSurface1SG",
            "pbrMetallicRoughness" : {
                "baseColorFactor" : [
                    0,
                    0,
                    0,
                    1
                ],
                "metallicFactor" : 0
            }
        }
    ],
    "meshes" : [
        {
            "name" : "Diorama_Stonehenge",
            "primitives" : [
                {
                    "attributes" : {
                        "POSITION" : 0,
                        "TEXCOORD_0" : 1,
                        "NORMAL" : 2
                    },
                    "indices" : 3,
                    "material" : 0
                }
            ]
        }
    ],
    "accessors" : [
        {
            "bufferView" : 0,
            "componentType" : 5126,
            "count" : 39274,
            "max" : [
                373.7749328613281,
                68.04908752441406,
                373.7747802734375
            ],
            "min" : [
                -373.7753601074219,
                -0.299439013004303,
                -373.7751159667969
            ],
            "type" : "VEC3"
        },
        {
            "bufferView" : 1,
            "componentType" : 5126,
            "count" : 39274,
            "type" : "VEC2"
        },
        {
            "bufferView" : 2,
            "componentType" : 5126,
            "count" : 39274,
            "type" : "VEC3"
        },
        {
            "bufferView" : 3,
            "componentType" : 5123,
            "count" : 175470,
            "type" : "SCALAR"
        }
    ],
    "bufferViews" : [
        {
            "buffer" : 0,
            "byteLength" : 471288,
            "byteOffset" : 0,
            "target" : 34962
        },
        {
            "buffer" : 0,
            "byteLength" : 314192,
            "byteOffset" : 471288,
            "target" : 34962
        },
        {
            "buffer" : 0,
            "byteLength" : 471288,
            "byteOffset" : 785480,
            "target" : 34962
        },
        {
            "buffer" : 0,
            "byteLength" : 350940,
            "byteOffset" : 1256768,
            "target" : 34963
        }
    ],
    "buffers" : [
        {
            "byteLength" : 1607708,
            "uri" : "data:application/octet-stream;base64,"
        }
    ]
}
