{
    "asset" : {
        "generator" : "Khronos glTF Blender I/O v3.4.50",
        "version" : "2.0"
    },
    "scene" : 0,
    "scenes" : [
        {
            "name" : "Scene",
            "nodes" : [
                0,
                1
            ]
        }
    ],
    "nodes" : [
        {
            "mesh" : 0,
            "name" : "Instructor_Diorama"
        },
        {
            "mesh" : 1,
            "name" : "Instructor_Diorama.001"
        }
    ],
    "meshes" : [
        {
            "name" : "Instructor_Diorama",
            "primitives" : [
                {
                    "attributes" : {
                        "POSITION" : 0,
                        "TEXCOORD_0" : 1,
                        "NORMAL" : 2
                    },
                    "indices" : 3
                }
            ]
        },
        {
            "name" : "Instructor_Diorama.001",
            "primitives" : [
                {
                    "attributes" : {
                        "POSITION" : 4,
                        "TEXCOORD_0" : 5,
                        "NORMAL" : 6
                    },
                    "indices" : 7
                }
            ]
        }
    ],
    "accessors" : [
        {
            "bufferView" : 0,
            "componentType" : 5126,
            "count" : 23353,
            "max" : [
                373.7749328613281,
                64.98248291015625,
                373.7747802734375
            ],
            "min" : [
                -373.7753601074219,
                -0.063789002597332,
                -373.7751159667969
            ],
            "type" : "VEC3"
        },
        {
            "bufferView" : 1,
            "componentType" : 5126,
            "count" : 23353,
            "type" : "VEC2"
        },
        {
            "bufferView" : 2,
            "componentType" : 5126,
            "count" : 23353,
            "type" : "VEC3"
        },
        {
            "bufferView" : 3,
            "componentType" : 5123,
            "count" : 100437,
            "type" : "SCALAR"
        },
        {
            "bufferView" : 4,
            "componentType" : 5126,
            "count" : 2430,
            "max" : [
                256.1696472167969,
                74.89595031738281,
                266.37933349609375
            ],
            "min" : [
                -129.77142333984375,
                7.726635932922363,
                -156.1988067626953
            ],
            "type" : "VEC3"
        },
        {
            "bufferView" : 5,
            "componentType" : 5126,
            "count" : 2430,
            "type" : "VEC2"
        },
        {
            "bufferView" : 6,
            "componentType" : 5126,
            "count" : 2430,
            "type" : "VEC3"
        },
        {
            "bufferView" : 7,
            "componentType" : 5123,
            "count" : 11520,
            "type" : "SCALAR"
        }
    ],
    "bufferViews" : [
        {
            "buffer" : 0,
            "byteLength" : 280236,
            "byteOffset" : 0,
            "target" : 34962
        },
        {
            "buffer" : 0,
            "byteLength" : 186824,
            "byteOffset" : 280236,
            "target" : 34962
        },
        {
            "buffer" : 0,
            "byteLength" : 280236,
            "byteOffset" : 467060,
            "target" : 34962
        },
        {
            "buffer" : 0,
            "byteLength" : 200874,
            "byteOffset" : 747296,
            "target" : 34963
        },
        {
            "buffer" : 0,
            "byteLength" : 29160,
            "byteOffset" : 948172,
            "target" : 34962
        },
        {
            "buffer" : 0,
            "byteLength" : 19440,
            "byteOffset" : 977332,
            "target" : 34962
        },
        {
            "buffer" : 0,
            "byteLength" : 29160,
            "byteOffset" : 996772,
            "target" : 34962
        },
        {
            "buffer" : 0,
            "byteLength" : 23040,
            "byteOffset" : 1025932,
            "target" : 34963
        }
    ],
    "buffers" : [
        {
            "byteLength" : 1048972,
            "uri" : "data:application/octet-stream;base64,"
        }
    ]
}
