{
	"asset": {
		"generator": "Khronos glTF Blender I/O v3.4.50",
		"version": "2.0"
	},
	"scene": 0,
	"scenes": [
		{
			"name": "Scene",
			"nodes": [0]
		}
	],
	"nodes": [
		{
			"mesh": 0,
			"name": "A303_Investigation_Diorama"
		}
	],
	"materials": [
		{
			"doubleSided": true,
			"name": "Default OBJ",
			"pbrMetallicRoughness": {
				"baseColorFactor": [0.800000011920929, 0.800000011920929, 0.800000011920929, 1],
				"metallicFactor": 0,
				"roughnessFactor": 0.5
			}
		}
	],
	"meshes": [
		{
			"name": "A303_Investigation_Diorama",
			"primitives": [
				{
					"attributes": {
						"POSITION": 0,
						"TEXCOORD_0": 1,
						"NORMAL": 2
					},
					"indices": 3,
					"material": 0
				}
			]
		}
	],
	"accessors": [
		{
			"bufferView": 0,
			"componentType": 5126,
			"count": 18683,
			"max": [373.7749328613281, 68.79438781738281, 374.1990966796875],
			"min": [-373.7753601074219, -0.004333000164479017, -373.99908447265625],
			"type": "VEC3"
		},
		{
			"bufferView": 1,
			"componentType": 5126,
			"count": 18683,
			"type": "VEC2"
		},
		{
			"bufferView": 2,
			"componentType": 5126,
			"count": 18683,
			"type": "VEC3"
		},
		{
			"bufferView": 3,
			"componentType": 5123,
			"count": 79494,
			"type": "SCALAR"
		}
	],
	"bufferViews": [
		{
			"buffer": 0,
			"byteLength": 224196,
			"byteOffset": 0,
			"target": 34962
		},
		{
			"buffer": 0,
			"byteLength": 149464,
			"byteOffset": 224196,
			"target": 34962
		},
		{
			"buffer": 0,
			"byteLength": 224196,
			"byteOffset": 373660,
			"target": 34962
		},
		{
			"buffer": 0,
			"byteLength": 158988,
			"byteOffset": 597856,
			"target": 34963
		}
	],
	"buffers": [
		{
			"byteLength": 756844,
			"uri": "data:application/octet-stream;base64,"
		}
	]
}
