{
	"asset":{
		"generator":"Khronos glTF Blender I/O v4.1.63",
		"version":"2.0"
	},
	"scene":0,
	"scenes":[
		{
			"name":"Scene",
			"nodes":[
				0
			]
		}
	],
	"nodes":[
		{
			"mesh":0,
			"name":"LearnAndDev"
		}
	],
	"meshes":[
		{
			"name":"LearnAndDev",
			"primitives":[
				{
					"attributes":{
						"POSITION":0,
						"NORMAL":1,
						"TEXCOORD_0":2
					},
					"indices":3
				}
			]
		}
	],
	"accessors":[
		{
			"bufferView":0,
			"componentType":5126,
			"count":8054,
			"max":[
				1603.15234375,
				4471.1064453125,
				5284.38818359375
			],
			"min":[
				-431.94989013671875,
				-2338.520751953125,
				-5284.38818359375
			],
			"type":"VEC3"
		},
		{
			"bufferView":1,
			"componentType":5126,
			"count":8054,
			"type":"VEC3"
		},
		{
			"bufferView":2,
			"componentType":5126,
			"count":8054,
			"type":"VEC2"
		},
		{
			"bufferView":3,
			"componentType":5123,
			"count":34272,
			"type":"SCALAR"
		}
	],
	"bufferViews":[
		{
			"buffer":0,
			"byteLength":96648,
			"byteOffset":0,
			"target":34962
		},
		{
			"buffer":0,
			"byteLength":96648,
			"byteOffset":96648,
			"target":34962
		},
		{
			"buffer":0,
			"byteLength":64432,
			"byteOffset":193296,
			"target":34962
		},
		{
			"buffer":0,
			"byteLength":68544,
			"byteOffset":257728,
			"target":34963
		}
	],
	"buffers":[
		{
			"byteLength":326272,
			"uri":"data:application/octet-stream;base64,"
		}
	]
}
