{
    "asset" : {
        "generator" : "Khronos glTF Blender I/O v3.4.50",
        "version" : "2.0"
    },
    "scene" : 0,
    "scenes" : [
        {
            "name" : "Scene",
            "nodes" : [
                0
            ]
        }
    ],
    "nodes" : [
        {
            "mesh" : 0,
            "name" : "Research"
        }
    ],
    "meshes" : [
        {
            "name" : "Research",
            "primitives" : [
                {
                    "attributes" : {
                        "POSITION" : 0,
                        "TEXCOORD_0" : 1,
                        "NORMAL" : 2
                    },
                    "indices" : 3
                }
            ]
        }
    ],
    "accessors" : [
        {
            "bufferView" : 0,
            "componentType" : 5126,
            "count" : 2030,
            "max" : [
                579.5199584960938,
                244.90345764160156,
                2219.6005859375
            ],
            "min" : [
                -450.000244140625,
                -78.54354858398438,
                -449.1121826171875
            ],
            "type" : "VEC3"
        },
        {
            "bufferView" : 1,
            "componentType" : 5126,
            "count" : 2030,
            "type" : "VEC2"
        },
        {
            "bufferView" : 2,
            "componentType" : 5126,
            "count" : 2030,
            "type" : "VEC3"
        },
        {
            "bufferView" : 3,
            "componentType" : 5123,
            "count" : 9510,
            "type" : "SCALAR"
        }
    ],
    "bufferViews" : [
        {
            "buffer" : 0,
            "byteLength" : 24360,
            "byteOffset" : 0,
            "target" : 34962
        },
        {
            "buffer" : 0,
            "byteLength" : 16240,
            "byteOffset" : 24360,
            "target" : 34962
        },
        {
            "buffer" : 0,
            "byteLength" : 24360,
            "byteOffset" : 40600,
            "target" : 34962
        },
        {
            "buffer" : 0,
            "byteLength" : 19020,
            "byteOffset" : 64960,
            "target" : 34963
        }
    ],
    "buffers" : [
        {
            "byteLength" : 83980,
            "uri" : "data:application/octet-stream;base64,"
        }
    ]
}
